<svg width="530" height="389" viewBox="0 0 530 389" fill="none" xmlns="http://www.w3.org/2000/svg">
<g clip-path="url(#clip0_155_202)">
<path d="M255.757 389C232.323 389 208.924 388.581 185.56 387.742C152.176 386.544 117.655 385.306 85.5693 367.525C63.1238 355.087 43.2449 335.132 28.0821 309.816C17.9476 292.656 10.5165 274.041 6.04987 254.622C-2.2821 219.269 -1.9983 182.433 6.8774 147.212C9.98778 135.136 14.2757 123.394 19.6795 112.154C43.0784 63.7391 85.7564 31.2393 136.771 22.9888C137.192 22.9342 137.618 22.9251 138.041 22.9617C138.271 22.974 138.499 22.9871 138.733 22.9774L139.033 22.882C139.802 22.6148 140.592 22.4122 141.396 22.2761C220.073 10.5728 303.247 34.2527 381.918 90.7539C442.747 134.446 523.363 157.974 628.372 162.682L629.863 162.76C659.095 164.437 687.371 176.479 711.637 197.585C735.589 218.416 753.573 246.209 763.644 277.96C764.882 281.831 766.017 285.861 767.018 289.936C767.949 293.723 767.883 297.687 766.827 301.442C765.77 305.196 763.759 308.613 760.99 311.361V311.369L760.728 311.637C760.099 312.263 759.436 312.863 758.759 313.421L757.963 314.077C751.252 319.601 745.952 323.964 739.608 327.353C735.377 329.598 730.878 331.295 726.218 332.404C700.628 338.638 674.642 344.417 648.98 349.583C599.143 359.623 547.994 367.906 496.952 374.2C416.932 384.059 336.383 389.001 255.757 389ZM137.445 24.6764C137.288 24.675 137.131 24.6856 136.976 24.7082C86.4389 32.8816 44.1649 65.0623 20.998 112.998C15.6475 124.127 11.402 135.752 8.32255 147.709C-0.472276 182.617 -0.752543 219.126 7.50531 254.166C11.9282 273.398 19.2873 291.836 29.324 308.831C44.3383 333.899 64.014 353.654 86.2241 365.96C118.022 383.583 152.38 384.816 185.607 386.007C289.53 389.717 393.584 385.192 496.791 372.475C547.8 366.184 598.916 357.907 648.72 347.873C674.364 342.711 700.333 336.936 725.905 330.706C730.453 329.625 734.844 327.969 738.973 325.778C745.189 322.458 750.438 318.136 757.085 312.665L757.881 312.01C758.463 311.53 759.035 311.016 759.582 310.482L759.739 310.318C765.2 304.817 767.324 297.56 765.566 290.408V290.407C764.576 286.375 763.453 282.389 762.228 278.558C741.654 213.696 688.431 167.858 629.79 164.493L628.308 164.415C580.341 162.265 538.366 156.307 499.991 146.201C454.18 134.137 414.186 115.977 381.119 92.2259C302.748 35.9412 219.922 12.3494 141.588 23.9972C140.856 24.1233 140.136 24.3098 139.435 24.5548L138.894 24.7061C138.587 24.7198 138.279 24.7161 137.972 24.6951C137.791 24.6858 137.616 24.6764 137.445 24.6764Z" fill="#F0F0F0"/>
<path d="M242.585 126.741C240.415 124.661 238.196 113.064 235.427 111.886C237.497 116.458 235.994 117.669 235.983 122.686C236.009 125.535 235.676 128.376 234.992 131.142H188.074V94.556C188.074 91.2686 188.722 88.0134 189.981 84.9763C191.24 81.9391 193.085 79.1795 195.411 76.855C197.738 74.5305 200.5 72.6866 203.539 71.4286C206.579 70.1706 209.837 69.5232 213.127 69.5233C214.383 69.5478 215.63 69.7303 216.84 70.0665C220.873 71.1544 224.549 73.2828 227.498 76.2381C230.448 79.1935 232.568 82.8719 233.646 86.9043C237.222 99.9672 242.911 121.711 242.585 126.741Z" fill="#2F2E41"/>
<path d="M190.827 171.749L190.85 143.232L174.073 144.73L179.994 162.716L177.223 207.923C175.879 208.224 174.652 208.909 173.691 209.896C172.731 210.882 172.078 212.126 171.812 213.476C171.547 214.827 171.681 216.225 172.197 217.501C172.714 218.777 173.59 219.875 174.721 220.662C175.851 221.449 177.186 221.89 178.562 221.931C179.939 221.973 181.298 221.613 182.474 220.897C183.65 220.18 184.592 219.137 185.184 217.894C185.777 216.652 185.995 215.264 185.812 213.9L190.827 171.749Z" fill="#FFB6B6"/>
<path d="M223.843 375.531L230.62 375.53L233.845 349.408H223.841L223.843 375.531Z" fill="#FFB6B6"/>
<path d="M221.547 372.189L232.262 371.551V376.137L242.448 383.167C242.951 383.514 243.33 384.012 243.529 384.59C243.729 385.168 243.738 385.794 243.556 386.377C243.374 386.96 243.01 387.47 242.518 387.832C242.025 388.194 241.43 388.389 240.819 388.389H228.063L225.864 383.852L225.006 388.389H220.196L221.547 372.189Z" fill="#2F2E41"/>
<path d="M184.652 375.531L191.431 375.53L194.655 349.408H184.652L184.652 375.531Z" fill="#FFB6B6"/>
<path d="M182.357 372.189L193.072 371.551V376.137L203.258 383.167C203.761 383.514 204.14 384.012 204.34 384.59C204.539 385.168 204.548 385.794 204.366 386.377C204.184 386.96 203.821 387.47 203.328 387.832C202.836 388.194 202.24 388.389 201.629 388.389H188.873L186.674 383.852L185.816 388.389H181.006L182.357 372.189Z" fill="#2F2E41"/>
<path d="M217.807 112.437L203.766 112.712L193.855 123.165L185.909 124.329C182.315 124.856 179.011 126.599 176.548 129.268C174.086 131.937 172.615 135.37 172.381 138.992L173.758 146.547H182.017L186.795 174.578C184.937 179.308 184.811 183.042 188.624 184.509L200.463 206.79L235.427 191.111C237.2 188.065 237.768 185.005 235.956 182.03L238.455 139.12H246.86C246.86 131.094 244.143 124.328 236.16 123.435C232.991 123.092 229.805 122.91 226.617 122.89L217.807 112.437Z" fill="#E6E6E6"/>
<path d="M235.427 191.111C235.427 191.111 201.289 197.162 188.624 184.509C188.624 184.509 187.339 186.689 185.401 190.306C184.844 191.347 183.768 192.051 183.118 193.311C182.528 194.456 181.009 195.864 180.365 197.163C179.848 198.208 180.678 199.573 180.139 200.702C173.654 214.294 166.077 233.467 167.701 246.127C168.749 254.292 170.912 273.29 173.191 293.695C173.369 295.289 171.927 297.337 172.106 298.944C172.275 300.459 174.064 301.533 174.233 303.052C174.345 304.06 173.095 305.089 173.207 306.096C173.33 307.201 174.814 308.284 174.936 309.385C178.058 337.559 180.916 363.864 180.916 363.864H196.884L199.896 303.787L197.434 281.888L203.216 237.6L211.2 279.688L212.227 303.375L220.664 364.964H235.427V305.342L236.528 302.245L235.427 298.272L236.528 293.992L235.427 289.331V191.111Z" fill="#2F2E41"/>
<path d="M222.117 104.301C219.942 107.188 216.848 109.248 213.344 110.143C209.84 111.038 206.136 110.715 202.841 109.225C199.546 107.736 196.857 105.17 195.217 101.949C193.577 98.7288 193.083 95.0463 193.818 91.5081C194.552 87.97 196.47 84.7871 199.256 82.4837C202.043 80.1804 205.531 78.8938 209.147 78.836C212.763 78.7782 216.291 79.9525 219.149 82.1656C222.008 84.3787 224.027 87.4987 224.874 91.0116C224.92 91.2021 224.959 91.3917 224.996 91.5884C225.444 93.7903 225.418 96.062 224.922 98.2534C224.425 100.445 223.469 102.506 222.117 104.301Z" fill="#FFB6B6"/>
<path d="M218.798 95.2271C218.461 93.534 217.607 91.9869 216.354 90.7982C216.477 92.4207 216.252 94.0509 215.693 95.5792C211.507 95.9496 207.302 95.1174 203.574 93.1805C200.766 91.2769 197.192 91.4419 193.029 93.1805C193.029 91.1575 193.428 89.1542 194.202 87.2851C194.977 85.416 196.113 83.7177 197.544 82.2871C198.976 80.8566 200.676 79.7219 202.546 78.9479C204.417 78.1738 206.422 77.7755 208.447 77.7758H211.2C215.288 77.7765 219.209 79.3997 222.101 82.2885C224.992 85.1773 226.616 89.0951 226.617 93.1805C224.076 94.0911 221.46 94.776 218.798 95.2271Z" fill="#2F2E41"/>
<path d="M98.3526 291.566C122.814 291.566 142.644 271.752 142.644 247.311C142.644 222.869 122.814 203.055 98.3526 203.055C73.8911 203.055 54.061 222.869 54.061 247.311C54.061 271.752 73.8911 291.566 98.3526 291.566Z" fill="#F0F0F0"/>
<path d="M380.603 88.5112C405.065 88.5112 424.895 68.6973 424.895 44.2556C424.895 19.8139 405.065 0 380.603 0C356.141 0 336.311 19.8139 336.311 44.2556C336.311 68.6973 356.141 88.5112 380.603 88.5112Z" fill="#F0F0F0"/>
<path d="M460.501 49.0819V149.435C460.502 151.519 459.679 153.519 458.211 155.001C456.744 156.483 454.751 157.326 452.665 157.348C452.636 157.351 452.607 157.352 452.578 157.352H440.889C431.536 157.352 422.566 153.639 415.953 147.031C409.339 140.423 405.624 131.46 405.624 122.115V49.0819C405.624 46.9822 406.458 44.9685 407.944 43.4838C409.43 41.9991 411.445 41.165 413.547 41.165H418.283C416.089 47.561 445.871 50.2537 447.506 41.165H452.578C454.68 41.165 456.695 41.9992 458.181 43.4839C459.667 44.9686 460.501 46.9823 460.501 49.0819Z" fill="#498EF3"/>
<path d="M425.813 33.6609C425.813 33.3859 425.922 33.1222 426.117 32.9277C426.312 32.7332 426.576 32.6237 426.851 32.6234H433.912C434.187 32.6242 434.45 32.7339 434.644 32.9284C434.838 33.1228 434.947 33.3863 434.947 33.6609C434.947 33.9356 434.838 34.199 434.644 34.3935C434.45 34.588 434.187 34.6977 433.912 34.6985H426.851C426.576 34.6982 426.312 34.5888 426.117 34.3943C425.922 34.1997 425.813 33.936 425.813 33.6609Z" fill="#3F3D56"/>
<path d="M455.004 170.08H410.351C406.887 170.077 403.565 168.7 401.116 166.252C398.666 163.804 397.288 160.486 397.284 157.024V86.8737C397.039 86.6977 396.839 86.4659 396.701 86.1975C396.564 85.929 396.492 85.6317 396.493 85.3301V78.2749C396.492 77.9733 396.564 77.676 396.701 77.4077C396.839 77.1393 397.039 76.9076 397.284 76.7317V74.8382C397.039 74.6623 396.839 74.4306 396.701 74.1622C396.564 73.8939 396.492 73.5966 396.493 73.295V66.2394C396.492 65.9379 396.564 65.6406 396.701 65.3722C396.839 65.1038 397.039 64.8721 397.284 64.6963V61.274C396.981 61.1115 396.728 60.8699 396.552 60.5749C396.376 60.28 396.284 59.9428 396.285 59.5994V52.5443C396.284 52.2009 396.376 51.8636 396.552 51.5686C396.728 51.2736 396.981 51.0319 397.284 50.8693V41.4918C397.288 38.0302 398.666 34.7116 401.116 32.264C403.565 29.8163 406.887 28.4396 410.351 28.4357H455.004C458.468 28.4396 461.79 29.8164 464.239 32.264C466.689 34.7117 468.067 38.0303 468.071 41.4919V61.9328C468.306 62.0799 468.5 62.2844 468.635 62.5269C468.769 62.7695 468.84 63.0423 468.84 63.3196V76.7724C468.84 77.0498 468.769 77.3226 468.635 77.5653C468.5 77.8079 468.306 78.0124 468.071 78.1596V157.024C468.067 160.486 466.689 163.804 464.239 166.252C461.79 168.7 458.468 170.077 455.004 170.08ZM410.351 30.1712C407.347 30.1745 404.467 31.3683 402.343 33.4906C400.219 35.6129 399.024 38.4904 399.021 41.4919V52.3456L398.185 52.3778C398.142 52.3793 398.101 52.3975 398.07 52.4285C398.04 52.4594 398.023 52.5009 398.022 52.5443V59.5994C398.023 59.6428 398.04 59.6842 398.071 59.7151C398.101 59.7461 398.142 59.7643 398.185 59.766L399.021 59.7977V65.9148L398.36 66.0775C398.324 66.0863 398.291 66.107 398.267 66.1363C398.244 66.1656 398.23 66.2018 398.23 66.2394V73.295C398.23 73.3326 398.244 73.3689 398.267 73.3981C398.291 73.4274 398.324 73.4481 398.36 73.4569L399.021 73.6196V77.9503L398.36 78.113C398.324 78.1218 398.291 78.1425 398.267 78.1717C398.244 78.201 398.23 78.2373 398.23 78.2749V85.3301C398.23 85.3677 398.244 85.404 398.267 85.4334C398.291 85.4627 398.324 85.4835 398.36 85.4923L399.021 85.655V157.024C399.024 160.026 400.219 162.903 402.343 165.025C404.467 167.148 407.347 168.342 410.351 168.345H455.004C458.008 168.341 460.888 167.148 463.012 165.025C465.136 162.903 466.33 160.026 466.334 157.024V76.6737H467.103V63.4188H466.334V41.4918C466.33 38.4904 465.136 35.613 463.012 33.4907C460.888 31.3684 458.008 30.1746 455.004 30.1712L410.351 30.1712Z" fill="#3F3D56"/>
<path d="M437.858 34.6985C438.431 34.6985 438.896 34.234 438.896 33.6609C438.896 33.0879 438.431 32.6234 437.858 32.6234C437.284 32.6234 436.819 33.0879 436.819 33.6609C436.819 34.234 437.284 34.6985 437.858 34.6985Z" fill="#3F3D56"/>
<path d="M211.975 234.644H95.7854C94.1354 234.64 92.5542 233.983 91.3874 232.817C90.2205 231.652 89.5631 230.072 89.5586 228.423V171.855C89.5628 170.206 90.2201 168.626 91.3868 167.46C92.5534 166.294 94.1346 165.638 95.7846 165.633H211.974C213.624 165.637 215.205 166.294 216.372 167.46C217.538 168.625 218.196 170.205 218.2 171.854V228.422C218.196 230.071 217.539 231.651 216.372 232.817C215.206 233.982 213.625 234.639 211.975 234.644Z" fill="white"/>
<path d="M211.975 234.644H95.7854C94.1354 234.64 92.5542 233.983 91.3874 232.817C90.2205 231.652 89.5631 230.072 89.5586 228.423V171.855C89.5628 170.206 90.2201 168.626 91.3868 167.46C92.5534 166.294 94.1346 165.638 95.7846 165.633H211.974C213.624 165.637 215.205 166.294 216.372 167.46C217.538 168.625 218.196 170.205 218.2 171.854V228.422C218.196 230.071 217.539 231.651 216.372 232.817C215.206 233.982 213.625 234.639 211.975 234.644ZM95.7854 167.369C94.5955 167.372 93.4554 167.846 92.6141 168.687C91.7729 169.528 91.2988 170.667 91.2955 171.856V228.422C91.299 229.611 91.7732 230.75 92.6147 231.591C93.4561 232.432 94.5964 232.905 95.7863 232.908H211.973C213.163 232.905 214.303 232.431 215.145 231.591C215.986 230.75 216.46 229.61 216.464 228.421V171.855C216.46 170.666 215.986 169.527 215.144 168.686C214.303 167.846 213.163 167.372 211.973 167.369L95.7854 167.369Z" fill="#3F3D56"/>
<path d="M160.107 226.284C137.192 226.284 113.298 226.065 104.383 225.923C103.21 225.899 102.093 225.418 101.27 224.582C100.448 223.746 99.9846 222.622 99.9801 221.45V174.624C99.9806 174.205 100.147 173.802 100.444 173.505C100.741 173.208 101.143 173.04 101.563 173.038H206.192C206.612 173.039 207.015 173.206 207.312 173.502C207.61 173.798 207.777 174.2 207.779 174.62V206.39C207.759 211.576 205.706 216.548 202.06 220.239C198.414 223.93 193.466 226.047 188.276 226.134C179.967 226.242 170.128 226.284 160.107 226.284Z" fill="#498EF3"/>
<path d="M199.981 203.472H105.441C104.649 203.469 103.878 203.224 103.231 202.768C102.584 202.312 102.093 201.669 101.825 200.924L91.1241 170.929C90.9179 170.351 90.8537 169.731 90.9367 169.123C91.0198 168.514 91.2478 167.934 91.6016 167.432C91.9553 166.93 92.4246 166.52 92.9698 166.237C93.515 165.953 94.1204 165.805 94.735 165.803L212.909 165.639C213.47 165.638 214.025 165.761 214.535 165.998C215.044 166.235 215.495 166.581 215.856 167.011C216.217 167.441 216.479 167.945 216.624 168.487C216.769 169.029 216.793 169.597 216.695 170.149L216.786 170.188L216.447 170.979L216.443 170.987L203.507 201.146C203.213 201.837 202.721 202.425 202.094 202.839C201.467 203.252 200.733 203.472 199.981 203.472ZM212.914 167.375L94.7383 167.539C94.4017 167.54 94.07 167.621 93.7713 167.776C93.4726 167.931 93.2156 168.156 93.0218 168.431C92.8279 168.706 92.703 169.024 92.6575 169.357C92.612 169.69 92.6472 170.03 92.7601 170.346L103.46 200.34C103.607 200.748 103.876 201.101 104.231 201.351C104.586 201.6 105.009 201.735 105.442 201.736H199.981C200.392 201.736 200.795 201.616 201.138 201.39C201.481 201.163 201.75 200.841 201.911 200.463L214.847 170.303C214.984 169.984 215.04 169.635 215.009 169.289C214.978 168.942 214.861 168.609 214.67 168.319C214.478 168.029 214.217 167.79 213.911 167.626C213.605 167.461 213.262 167.375 212.914 167.375Z" fill="#3F3D56"/>
<path d="M153.703 210.001C157.792 210.001 161.106 206.689 161.106 202.604C161.106 198.519 157.792 195.207 153.703 195.207C149.615 195.207 146.3 198.519 146.3 202.604C146.3 206.689 149.615 210.001 153.703 210.001Z" fill="white"/>
<path d="M433.348 145.787C437.437 145.787 440.751 142.475 440.751 138.39C440.751 134.305 437.437 130.993 433.348 130.993C429.26 130.993 425.945 134.305 425.945 138.39C425.945 142.475 429.26 145.787 433.348 145.787Z" fill="white"/>
<path d="M246.439 165.147L246.462 136.63L229.686 138.128L235.606 156.113L214.114 188.667C212.77 188.968 211.543 189.654 210.583 190.64C209.622 191.626 208.969 192.87 208.704 194.221C208.438 195.571 208.572 196.969 209.088 198.245C209.605 199.521 210.482 200.619 211.612 201.406C212.742 202.193 214.077 202.634 215.454 202.675C216.83 202.717 218.19 202.357 219.365 201.641C220.541 200.924 221.483 199.881 222.076 198.638C222.668 197.396 222.886 196.008 222.703 194.644L246.439 165.147Z" fill="#FFB6B6"/>
</g>
<defs>
<clipPath id="clip0_155_202">
<rect width="530" height="389" fill="white"/>
</clipPath>
</defs>
</svg>
