<svg width="48" height="48" viewBox="0 0 48 48" fill="none" xmlns="http://www.w3.org/2000/svg">
<g clip-path="url(#clip0_361_26)">
<path d="M24 48C37.2548 48 48 37.2548 48 24C48 10.7452 37.2548 0 24 0C10.7452 0 0 10.7452 0 24C0 37.2548 10.7452 48 24 48Z" fill="#498EF3" stroke="white" stroke-width="0.0625"/>
<path d="M32.317 16.3593C30.761 15.6451 29.1188 15.1359 27.4317 14.8443C27.4164 14.8414 27.4005 14.8434 27.3863 14.8501C27.3722 14.8567 27.3605 14.8677 27.353 14.8814C27.129 15.2874 26.9256 15.7045 26.7436 16.131C24.9251 15.8549 23.0754 15.8549 21.2569 16.131C21.0741 15.7034 20.8678 15.2862 20.6391 14.8814C20.6312 14.868 20.6195 14.8572 20.6054 14.8506C20.5914 14.844 20.5756 14.8418 20.5603 14.8443C18.8737 15.1354 17.2321 15.6447 15.6769 16.3593C15.6635 16.365 15.6522 16.3746 15.6445 16.387C12.5334 21.0356 11.6812 25.5698 12.0994 30.0468C12.1006 30.0578 12.104 30.0685 12.1094 30.0781C12.1148 30.0878 12.122 30.0963 12.1308 30.1031C13.9424 31.4451 15.9689 32.4695 18.1237 33.1326C18.139 33.1372 18.1552 33.1369 18.1703 33.132C18.1853 33.1271 18.1986 33.1176 18.2081 33.105C18.6708 32.4751 19.0808 31.8081 19.4339 31.1109C19.4387 31.1013 19.4415 31.0908 19.4419 31.0801C19.4424 31.0694 19.4406 31.0588 19.4367 31.0488C19.4328 31.0388 19.4268 31.0298 19.4191 31.0223C19.4114 31.0149 19.4022 31.0091 19.3922 31.0054C18.7456 30.7584 18.1196 30.4606 17.52 30.1148C17.5091 30.1084 17.5 30.0994 17.4934 30.0886C17.4868 30.0779 17.483 30.0657 17.4822 30.053C17.4815 30.0404 17.4839 30.0279 17.4891 30.0164C17.4944 30.0049 17.5024 29.9949 17.5125 29.9873C17.6381 29.8935 17.7642 29.7951 17.8842 29.6957C17.8949 29.687 17.9078 29.6814 17.9214 29.6796C17.9351 29.6777 17.949 29.6798 17.9616 29.6854C21.8892 31.4789 26.1417 31.4789 30.023 29.6854C30.0356 29.6794 30.0498 29.677 30.0637 29.6787C30.0776 29.6803 30.0908 29.6859 30.1017 29.6948C30.2217 29.7937 30.3478 29.8931 30.4767 29.9873C30.4868 29.9949 30.4949 30.0048 30.5003 30.0162C30.5056 30.0276 30.5081 30.0402 30.5074 30.0528C30.5068 30.0654 30.503 30.0776 30.4965 30.0885C30.49 30.0993 30.481 30.1083 30.4702 30.1148C29.8714 30.464 29.2441 30.7619 28.5952 31.0054C28.585 31.0092 28.5758 31.0152 28.5682 31.0228C28.5605 31.0304 28.5546 31.0396 28.5507 31.0497C28.5469 31.0598 28.5452 31.0706 28.5458 31.0814C28.5465 31.0922 28.5494 31.1027 28.5544 31.1123C28.9134 31.8057 29.3228 32.4719 29.7792 33.1054C29.7885 33.1185 29.8016 33.1283 29.8168 33.1334C29.8319 33.1385 29.8483 33.1387 29.8636 33.134C32.0214 32.4728 34.0505 31.4483 35.8636 30.1045C35.8725 30.098 35.8799 30.0898 35.8853 30.0802C35.8907 30.0707 35.894 30.0601 35.895 30.0492C36.3956 24.8723 35.0569 20.3751 32.3466 16.3889C32.3405 16.3758 32.33 16.3654 32.317 16.3593ZM20.0198 27.321C18.8372 27.321 17.8636 26.2354 17.8636 24.9023C17.8636 23.5692 18.8189 22.4835 20.0198 22.4835C21.2306 22.4835 22.1958 23.5785 22.1761 24.9023C22.177 26.2354 21.2212 27.321 20.0198 27.321ZM27.9947 27.321C26.812 27.321 25.8384 26.2354 25.8384 24.9023C25.8384 23.5692 26.7937 22.4835 27.9947 22.4835C29.2055 22.4835 30.1706 23.5785 30.1509 24.9023C30.1514 26.2354 29.2055 27.321 27.9947 27.321Z" fill="white" stroke="white" stroke-width="0.0625"/>
</g>
<defs>
<clipPath id="clip0_361_26">
<rect width="48" height="48" fill="white"/>
</clipPath>
</defs>
</svg>
