<svg width="538" height="604" viewBox="0 0 538 604" fill="none" xmlns="http://www.w3.org/2000/svg">
<g clip-path="url(#clip0_347_90)">
<path d="M304.996 465.392C433.68 465.392 538 361.211 538 232.696C538 104.182 433.68 0 304.996 0C176.311 0 71.9915 104.182 71.9915 232.696C71.9915 361.211 176.311 465.392 304.996 465.392Z" fill="#F2F2F2"/>
<path d="M457.26 104.061H30.4287C29.5135 104.042 28.7873 103.285 28.8069 102.371C28.8259 101.484 29.541 100.77 30.4287 100.751H457.26C458.176 100.771 458.902 101.528 458.882 102.442C458.863 103.328 458.148 104.042 457.26 104.061Z" fill="#CACACA"/>
<path d="M311.797 159.839H193.804C184.942 159.839 177.757 167.014 177.757 175.865V175.865C177.757 184.716 184.942 191.891 193.804 191.891H311.797C320.66 191.891 327.844 184.716 327.844 175.865C327.844 167.014 320.66 159.839 311.797 159.839Z" fill="white"/>
<path d="M117.58 223.943H388.021C396.884 223.943 404.068 231.118 404.068 239.969C404.068 248.82 396.884 255.995 388.021 255.995H117.58C108.717 255.995 101.533 248.82 101.533 239.969C101.533 231.118 108.717 223.943 117.58 223.943Z" fill="white"/>
<path d="M117.58 288.047H388.021C396.884 288.047 404.068 295.222 404.068 304.073C404.068 312.924 396.884 320.099 388.021 320.099H117.58C108.717 320.099 101.533 312.924 101.533 304.073C101.533 295.222 108.717 288.047 117.58 288.047Z" fill="white"/>
<path d="M84.0657 602.591L83.4293 602.528C61.8344 600.303 42.3129 588.705 30.0507 570.814C26.692 565.828 23.9752 560.441 21.9643 554.778L21.7711 554.237L22.3433 554.191C29.1747 553.642 36.1926 552.485 39.3102 551.934L19.207 545.131L19.0827 544.536C17.8908 538.944 20.2258 533.19 24.9798 530.004C29.7467 526.665 36.068 526.559 40.9452 529.734C43.134 531.131 45.4233 532.513 47.6371 533.851C55.2448 538.447 63.1115 543.199 69.0095 549.701C77.9532 559.758 81.8734 573.31 79.6782 586.58L84.0657 602.591Z" fill="#F2F2F2"/>
<path d="M157.14 592.606L167.048 592.605L171.762 554.438L157.138 554.439L157.14 592.606Z" fill="#A0616A"/>
<path d="M156.791 602.928L187.26 602.927V602.543C187.259 596.002 181.95 590.699 175.4 590.699L169.834 586.482L159.45 590.7L156.79 590.7L156.791 602.928Z" fill="#2F2E41"/>
<path d="M77.7365 565.2L85.6613 571.137L112.368 543.432L100.67 534.669L77.7365 565.2Z" fill="#A0616A"/>
<path d="M71.2539 573.247L95.6267 591.508L95.8579 591.2C99.7881 585.967 98.7274 578.544 93.4887 574.618L91.5701 567.909L80.7296 565.059L78.602 563.465L71.2539 573.247Z" fill="#2F2E41"/>
<path d="M110.672 413.496C110.672 413.496 111.219 428.396 111.909 440.345C112.022 442.305 107.425 444.434 107.544 446.566C107.623 447.98 108.487 449.355 108.567 450.83C108.652 452.387 107.459 453.764 107.544 455.374C107.627 456.947 108.988 458.75 109.07 460.36C109.954 477.683 113.156 498.422 109.949 504.219C108.369 507.076 88.2218 546.658 88.2218 546.658C88.2218 546.658 99.447 563.473 102.654 557.868C106.89 550.465 139.537 515.83 139.537 509.215C139.537 502.609 147.09 453.1 147.09 453.1L152.356 482.399L154.771 488.204L154.012 491.612L155.573 496.211L155.657 500.763L157.176 509.215C157.176 509.215 152.606 575.068 155.18 576.902C157.762 578.743 170.262 582.05 171.737 578.743C173.204 575.436 182.755 510.016 182.755 510.016C182.755 510.016 184.294 480.037 185.962 452.171C186.058 450.553 187.197 448.6 187.285 447.006C187.389 445.156 186.668 442.754 186.764 440.961C186.868 438.903 187.782 437.453 187.87 435.484C188.552 420.262 184.726 401.725 183.508 399.899C179.827 394.39 176.516 389.986 176.516 389.986C176.516 389.986 126.947 373.721 113.701 390.248L110.672 413.496Z" fill="#2F2E41"/>
<path d="M160.11 260.275L140.46 256.35L131.29 268.779C114.179 285.581 113.922 300.41 116.976 324.18V357.542L114.765 379.906C114.765 379.906 106.939 396.254 115.011 400.061C123.083 403.867 176.105 403.543 181.167 402.023C186.229 400.504 181.841 398.638 180.512 391.557C178.015 378.255 179.685 384.672 179.857 380.437C182.321 319.685 176.582 294.744 175.999 288.188L166.006 270.087L160.11 260.275Z" fill="#3F3D56"/>
<path d="M263.679 309.258C261.631 313.133 256.825 314.617 252.945 312.571C252.531 312.353 252.138 312.099 251.769 311.812L209.332 338.721L209.454 324.07L250.678 300.179C253.615 296.891 258.664 296.603 261.956 299.536C264.711 301.989 265.423 306.009 263.679 309.258Z" fill="#A0616A"/>
<path d="M144.595 277.242L139.764 276.731C135.3 276.268 130.92 278.178 128.225 281.761C127.192 283.12 126.45 284.677 126.046 286.334L126.043 286.348C124.831 291.336 126.732 296.564 130.866 299.614L147.553 311.9C159.263 327.703 181.271 338.186 207.087 346.704L247.214 321.816L233.021 304.649L205.498 319.38L164.586 287.752L164.562 287.733L148.991 277.714L144.595 277.242Z" fill="#3F3D56"/>
<path d="M153.471 250.638C166.126 250.638 176.386 240.393 176.386 227.754C176.386 215.115 166.126 204.869 153.471 204.869C140.815 204.869 130.556 215.115 130.556 227.754C130.556 240.393 140.815 250.638 153.471 250.638Z" fill="#A0616A"/>
<path d="M154 250.643C153.815 250.649 153.63 250.653 153.445 250.658C153.366 250.864 153.281 251.067 153.182 251.266L154 250.643Z" fill="#2F2E41"/>
<path d="M160.289 228.389C160.325 228.614 160.38 228.836 160.453 229.052C160.423 228.826 160.368 228.603 160.289 228.389Z" fill="#2F2E41"/>
<path d="M176.678 205.848C175.735 208.773 174.893 205.063 171.79 205.73C168.058 206.533 163.714 206.257 160.658 203.972C156.103 200.635 150.201 199.737 144.858 201.568C139.628 203.415 130.865 204.718 129.503 210.089C129.029 211.956 128.841 213.982 127.693 215.529C126.689 216.882 125.104 217.653 123.779 218.694C119.305 222.21 122.725 232.198 124.842 237.475C126.96 242.753 131.817 246.598 137.158 248.567C142.325 250.472 147.933 250.808 153.445 250.659C154.404 248.175 153.99 245.307 153.199 242.733C152.342 239.946 151.074 237.256 150.716 234.363C150.359 231.47 151.144 228.184 153.573 226.567C155.806 225.081 159.44 225.986 160.289 228.389C159.793 225.385 162.84 222.479 165.981 221.968C169.354 221.419 172.726 222.635 176.089 223.24C179.452 223.845 178.258 209.706 176.678 205.848Z" fill="#2F2E41"/>
<path d="M304.836 265.61C306.972 239.833 287.78 217.207 261.969 215.074C236.158 212.941 213.503 232.107 211.367 257.884C209.23 283.661 228.423 306.286 254.233 308.42C280.044 310.553 302.7 291.386 304.836 265.61Z" fill="#498EF3"/>
<path d="M270.42 242.233L258.101 254.535L245.783 242.233C243.789 240.242 240.556 240.242 238.562 242.233C236.568 244.225 236.568 247.453 238.562 249.445L250.88 261.747L238.562 274.049C236.57 276.042 236.573 279.271 238.569 281.26C240.562 283.247 243.79 283.247 245.783 281.26L258.101 268.958L270.42 281.26C272.416 283.25 275.648 283.247 277.641 281.254C279.63 279.263 279.63 276.039 277.641 274.049L265.322 261.747L277.641 249.445C279.635 247.453 279.635 244.225 277.641 242.233C275.647 240.242 272.414 240.242 270.42 242.233Z" fill="white"/>
<path d="M239.622 222.384C241.004 226.543 238.749 231.033 234.585 232.414C234.141 232.561 233.685 232.669 233.222 232.736L223.286 281.947L212.785 271.716L224.061 225.468C223.719 221.076 227.006 217.237 231.404 216.895C235.084 216.609 238.482 218.878 239.622 222.384Z" fill="#A0616A"/>
<path d="M134.046 286.037L130.332 289.165C126.908 292.062 125.255 296.54 125.978 300.964C126.245 302.649 126.857 304.261 127.774 305.7L127.782 305.711C130.547 310.038 135.641 312.287 140.707 311.419L161.137 307.9C180.662 310.401 203.473 301.799 227.5 289.091L237.297 242.944L215.067 241.287L206.656 271.32L155.48 278.907L155.45 278.911L137.43 283.196L134.046 286.037Z" fill="#3F3D56"/>
<path d="M250.376 603.718L1.08873 604C0.485499 603.998 -0.00194808 603.508 5.85379e-06 602.906C0.00194144 602.306 0.488242 601.82 1.08873 601.818L250.376 601.537C250.979 601.539 251.466 602.029 251.464 602.631C251.463 603.231 250.976 603.717 250.376 603.718Z" fill="#CACACA"/>
<path d="M52.0836 83.0958C56.368 83.0958 59.8412 79.5499 59.8412 75.1758C59.8412 70.8018 56.368 67.2559 52.0836 67.2559C47.7992 67.2559 44.326 70.8018 44.326 75.1758C44.326 79.5499 47.7992 83.0958 52.0836 83.0958Z" fill="#3F3D56"/>
<path d="M78.8826 83.0958C83.167 83.0958 86.6402 79.5499 86.6402 75.1758C86.6402 70.8018 83.167 67.2559 78.8826 67.2559C74.5982 67.2559 71.125 70.8018 71.125 75.1758C71.125 79.5499 74.5982 83.0958 78.8826 83.0958Z" fill="#3F3D56"/>
<path d="M105.682 83.0958C109.966 83.0958 113.439 79.5499 113.439 75.1758C113.439 70.8018 109.966 67.2559 105.682 67.2559C101.397 67.2559 97.924 70.8018 97.924 75.1758C97.924 79.5499 101.397 83.0958 105.682 83.0958Z" fill="#3F3D56"/>
<path d="M136.239 81.4356C136.001 81.4356 135.763 81.3435 135.584 81.1601L130.349 75.8163C130 75.4603 130 74.8912 130.349 74.5352L135.584 69.1919C135.939 68.8304 136.52 68.8246 136.881 69.1775C137.243 69.5314 137.249 70.1116 136.895 70.473L132.288 75.1758L136.895 79.8789C137.249 80.2404 137.243 80.8206 136.881 81.1744C136.703 81.3489 136.471 81.4356 136.239 81.4356Z" fill="#3F3D56"/>
<path d="M145.035 81.4356C144.804 81.4356 144.572 81.3488 144.394 81.1743C144.031 80.8205 144.025 80.2408 144.379 79.8789L148.986 75.1757L144.379 70.4729C144.025 70.1115 144.031 69.5313 144.394 69.1775C144.755 68.8232 145.337 68.8299 145.691 69.1918L150.925 74.5351C151.274 74.8912 151.274 75.4602 150.925 75.8163L145.691 81.16C145.511 81.3434 145.273 81.4356 145.035 81.4356Z" fill="#3F3D56"/>
<path d="M418.87 68.1729H409.137C408.027 68.1729 407.128 69.0706 407.128 70.1792V79.9084C407.128 81.017 408.027 81.9147 409.137 81.9147H418.87C419.98 81.9147 420.888 81.017 420.888 79.9084V70.1792C420.888 69.0706 419.98 68.1729 418.87 68.1729Z" fill="#3F3D56"/>
<path d="M395.019 68.1729H385.286C384.176 68.1729 383.277 69.0706 383.277 70.1792V79.9084C383.277 81.017 384.176 81.9147 385.286 81.9147H395.019C396.129 81.9147 397.037 81.017 397.037 79.9084V70.1792C397.037 69.0706 396.129 68.1729 395.019 68.1729Z" fill="#3F3D56"/>
<path d="M441.345 68.6309H431.612C430.502 68.6309 429.603 69.5286 429.603 70.6372V80.3664C429.603 81.475 430.502 82.3728 431.612 82.3728H441.345C442.455 82.3728 443.363 81.475 443.363 80.3664V70.6372C443.363 69.5286 442.455 68.6309 441.345 68.6309Z" fill="#3F3D56"/>
<path d="M294.642 72.332H216.843C215.485 72.332 214.393 73.4314 214.393 74.7781C214.393 76.1249 215.485 77.2242 216.843 77.2242H294.642C295.991 77.2242 297.092 76.1248 297.092 74.7781C297.092 73.4315 295.991 72.332 294.642 72.332Z" fill="#3F3D56"/>
</g>
<defs>
<clipPath id="clip0_347_90">
<rect width="538" height="604" fill="white"/>
</clipPath>
</defs>
</svg>
