<svg width="48" height="48" viewBox="0 0 48 48" fill="none" xmlns="http://www.w3.org/2000/svg">
<g clip-path="url(#clip0_361_8)">
<path d="M48 24C48 10.7452 37.2548 0 24 0C10.7452 0 0 10.7452 0 24C0 37.2548 10.7452 48 24 48C37.2548 48 48 37.2548 48 24Z" fill="#498EF3"/>
<path d="M8.58337 15.9302V33.5833C8.58337 34.7339 9.51608 35.6667 10.6667 35.6667H15.6667V23.8033L24 30.1112L32.3334 23.8033V35.6667H37.3334C38.484 35.6667 39.4167 34.7339 39.4167 33.5833V15.9302C39.4167 13.1733 36.2605 11.6081 34.0659 13.2769L24 20.9302L13.9342 13.2771C11.7396 11.6081 8.58337 13.1733 8.58337 15.9302Z" stroke="white" stroke-width="3.33333" stroke-linejoin="round"/>
</g>
<defs>
<clipPath id="clip0_361_8">
<rect width="48" height="48" fill="white"/>
</clipPath>
</defs>
</svg>
