<svg width="48" height="48" viewBox="0 0 48 48" fill="none" xmlns="http://www.w3.org/2000/svg">
<g clip-path="url(#clip0_361_44)">
<path d="M48 24C48 10.7452 37.2548 0 24 0C10.7452 0 0 10.7452 0 24C0 37.2548 10.7452 48 24 48C37.2548 48 48 37.2548 48 24Z" fill="#498EF3"/>
<path d="M9 22.3333C9 16.0479 9 12.9052 10.9526 10.9526C12.9052 9 16.0479 9 22.3333 9H25.6667C31.952 9 35.0948 9 37.0473 10.9526C39 12.9052 39 16.0479 39 22.3333V25.6667C39 31.952 39 35.0948 37.0473 37.0473C35.0948 39 31.952 39 25.6667 39H22.3333C16.0479 39 12.9052 39 10.9526 37.0473C9 35.0948 9 31.952 9 25.6667V22.3333Z" stroke="white" stroke-width="2.22222"/>
<path d="M31.5 19C32.8807 19 34 17.8807 34 16.5C34 15.1193 32.8807 14 31.5 14C30.1193 14 29 15.1193 29 16.5C29 17.8807 30.1193 19 31.5 19Z" fill="white" stroke="white" stroke-width="2.22222"/>
<path d="M24 29.8333C27.2217 29.8333 29.8334 27.2216 29.8334 24C29.8334 20.7783 27.2217 18.1666 24 18.1666C20.7784 18.1666 18.1667 20.7783 18.1667 24C18.1667 27.2216 20.7784 29.8333 24 29.8333Z" stroke="white" stroke-width="2.22222"/>
</g>
<defs>
<clipPath id="clip0_361_44">
<rect width="48" height="48" fill="white"/>
</clipPath>
</defs>
</svg>
