<svg width="75" height="75" viewBox="0 0 75 75" fill="none" xmlns="http://www.w3.org/2000/svg">
<rect width="75" height="75" rx="10" fill="white"/>
<g clip-path="url(#clip0_244_164)">
<path d="M37.5001 17.1428C28.3572 17.1428 22.6429 21.7143 20.3572 30.8571C23.7858 26.2857 27.7858 24.5714 32.3572 25.7143C34.9655 26.3663 36.8297 28.2585 38.8932 30.3531C42.2547 33.7652 46.1453 37.7143 54.6429 37.7143C63.7858 37.7143 69.5001 33.1428 71.7858 24C68.3572 28.5714 64.3572 30.2857 59.7858 29.1428C57.1775 28.4908 55.3133 26.5986 53.2498 24.504C49.8883 21.0919 45.9977 17.1428 37.5001 17.1428ZM20.3572 37.7143C11.2144 37.7143 5.50007 42.2857 3.21436 51.4285C6.64293 46.8571 10.6429 45.1428 15.2144 46.2857C17.8226 46.9377 19.6869 48.8299 21.7504 50.9245C25.1119 54.3366 29.0024 58.2857 37.5001 58.2857C46.6429 58.2857 52.3572 53.7143 54.6429 44.5714C51.2144 49.1428 47.2144 50.8571 42.6429 49.7143C40.0347 49.0622 38.1704 47.17 36.1069 45.0754C32.7454 41.6633 28.8549 37.7143 20.3572 37.7143Z" fill="url(#paint0_linear_244_164)"/>
</g>
<defs>
<linearGradient id="paint0_linear_244_164" x1="-187.262" y1="1333.71" x2="5735" y2="4748.35" gradientUnits="userSpaceOnUse">
<stop stop-color="#2298BD"/>
<stop offset="1" stop-color="#0ED7B5"/>
</linearGradient>
<clipPath id="clip0_244_164">
<rect width="68.5714" height="41.1429" fill="white" transform="translate(3.21436 17.1428)"/>
</clipPath>
</defs>
</svg>
