<svg width="48" height="48" viewBox="0 0 48 48" fill="none" xmlns="http://www.w3.org/2000/svg">
<g clip-path="url(#clip0_361_31)">
<path d="M48 24C48 10.7452 37.2548 0 24 0C10.7452 0 0 10.7452 0 24C0 37.2548 10.7452 48 24 48C37.2548 48 48 37.2548 48 24Z" fill="#498EF3"/>
<path d="M31.8711 27.4336C31.4453 27.2148 29.3242 26.1758 28.9297 26.0352C28.5352 25.8867 28.2461 25.8164 27.9609 26.2539C27.6719 26.6875 26.8516 27.6523 26.5938 27.9453C26.3438 28.2344 26.0898 28.2695 25.6641 28.0547C23.1328 26.7891 21.4727 25.7969 19.8047 22.9336C19.3633 22.1719 20.2461 22.2266 21.0703 20.582C21.2109 20.293 21.1406 20.0469 21.0312 19.8281C20.9219 19.6094 20.0625 17.4922 19.7031 16.6289C19.3555 15.7891 18.9961 15.9062 18.7344 15.8906C18.4844 15.875 18.1992 15.875 17.9102 15.875C17.6211 15.875 17.1563 15.9844 16.7617 16.4102C16.3672 16.8438 15.2539 17.8867 15.2539 20.0039C15.2539 22.1211 16.7969 24.1719 17.0078 24.4609C17.2266 24.75 20.043 29.0937 24.3672 30.9648C27.1016 32.1445 28.1719 32.2461 29.5391 32.043C30.3711 31.918 32.0859 31.0039 32.4414 29.9922C32.7969 28.9844 32.7969 28.1211 32.6914 27.9414C32.5859 27.75 32.2969 27.6406 31.8711 27.4336Z" fill="white" stroke="white" stroke-width="0.0520833"/>
<path d="M40.1406 17.2188C39.2578 15.1211 37.9922 13.2383 36.3789 11.6211C34.7656 10.0078 32.8828 8.73828 30.7812 7.85938C28.6328 6.95703 26.3515 6.5 24 6.5H23.9219C21.5547 6.51172 19.2617 6.98047 17.1054 7.90234C15.0234 8.79297 13.1562 10.0586 11.5586 11.6719C9.96092 13.2852 8.70701 15.1602 7.83982 17.25C6.94138 19.4141 6.48826 21.7148 6.49998 24.082C6.5117 26.793 7.16013 29.4844 8.37498 31.8906V37.8281C8.37498 38.8203 9.17967 39.625 10.1719 39.625H16.1133C18.5195 40.8398 21.2109 41.4883 23.9219 41.5H24.0039C26.3437 41.5 28.6133 41.0469 30.75 40.1602C32.8398 39.2891 34.7187 38.0391 36.3281 36.4414C37.9414 34.8438 39.2109 32.9766 40.0976 30.8945C41.0195 28.7383 41.4883 26.4453 41.5 24.0781C41.5117 21.6992 41.0508 19.3906 40.1406 17.2188ZM34.2383 34.3281C31.5 37.0391 27.8672 38.5312 24 38.5312H23.9336C21.5781 38.5195 19.2383 37.9336 17.1719 36.832L16.8437 36.6562H11.3437V31.1562L11.1679 30.8281C10.0664 28.7617 9.48045 26.4219 9.46873 24.0664C9.4531 20.1719 10.9414 16.5156 13.6719 13.7617C16.3984 11.0078 20.0429 9.48438 23.9375 9.46875H24.0039C25.957 9.46875 27.8515 9.84766 29.6367 10.5977C31.3789 11.3281 32.9414 12.3789 34.2851 13.7227C35.625 15.0625 36.6797 16.6289 37.4101 18.3711C38.1679 20.1758 38.5469 22.0898 38.539 24.0664C38.5156 27.957 36.9883 31.6016 34.2383 34.3281Z" fill="white" stroke="white" stroke-width="0.0520833"/>
</g>
<defs>
<clipPath id="clip0_361_31">
<rect width="48" height="48" fill="white"/>
</clipPath>
</defs>
</svg>
